<svg width="40" height="30" viewBox="0 0 40 30" fill="none" xmlns="http://www.w3.org/2000/svg">
<path d="M38.2341 22.179L21.382 11.9637V10.2243C21.382 8.25181 19.2869 7.39543 19.2869 7.39543C17.9306 6.7166 18.0521 5.25335 18.0521 5.25335C18.0521 3.5354 19.55 2.98392 20.2178 2.98392C21.3393 2.98392 22.4392 3.62263 22.5551 5.0836C22.7373 7.37432 25.2644 6.79295 25.2644 4.95251C25.2644 3.21344 23.7198 0.162842 20.1975 0.162842C16.39 0.162842 15.2964 3.98649 15.2964 5.19536C15.2964 6.10729 15.4369 6.94921 15.9848 7.9102C16.9159 9.54336 18.7793 9.80002 18.7793 10.8817V11.9635L1.75609 22.2173C0.0759376 23.2355 -0.2271 25.4029 0.137146 26.7179C0.490637 27.9932 1.73647 29.5134 3.97825 29.5134H3.98332C3.98332 29.5134 32.8898 29.5134 35.8049 29.5134C38.3151 29.5134 39.4597 28.0356 39.813 26.7603C40.1774 25.4453 40.1774 23.4091 38.2341 22.179ZM35.8456 26.6454H4.02887C2.99338 26.6868 2.35346 25.1969 3.3774 24.5397L19.9752 14.586L36.4856 24.4959C37.5096 25.2408 36.9549 26.6431 35.8456 26.6454Z" fill="white"/>
</svg>
