<svg width="390" height="999" viewBox="0 0 390 999" fill="none" xmlns="http://www.w3.org/2000/svg">
<path d="M16.1485 208.049C16.1485 208.049 20.0004 155.769 42.8124 124.902C65.6245 94.0346 75.9803 79.6346 91.0972 73.6741C106.215 67.7131 135.072 60.0492 170.048 69.7823C205.024 79.5138 220.584 85.7593 234.892 97.864C249.201 109.968 257.016 118.029 256.914 120.133C256.812 122.237 213.485 176.462 213.485 176.462C213.485 176.462 208.349 181.375 206.222 179.738C204.095 178.101 188.602 164.813 176.705 161.251C164.809 157.688 148.582 156.658 136.518 162.24C124.453 167.823 113.433 171.755 106.029 187.881C98.6238 204.006 96.8929 208.403 96.8929 208.403C96.8929 208.403 96.1143 214.488 92.4693 214.274C88.8448 214.052 19.114 211.006 19.114 211.006L16.1485 208.049Z" fill="#252525"/>
<path d="M30.5274 239.272L88.5412 240.98C88.5412 240.98 95.3764 241.211 95.3956 243.842C95.4146 246.472 93.8591 250.31 94.6641 257.905C95.4692 265.499 95.9461 273.81 97.1265 275.688C98.3068 277.567 98.3576 284.58 92.3618 285.19C86.3661 285.799 72.2035 286.41 69.211 287.591C66.2195 288.773 50.9018 291.012 49.156 291.701C47.411 292.39 47.8243 291.934 42.8194 291.273C37.8145 290.612 35.3279 292.473 30.6702 293.726C26.0124 294.979 23.7752 296.742 22.9295 295.025C22.0836 293.307 20.8843 288.799 20.7673 284.156C20.6502 279.513 18.5913 248.382 18.5913 248.382C18.5913 248.382 16.7229 243.552 20.3771 241.816C24.0313 240.08 30.5256 239.273 30.5256 239.273L30.5274 239.272Z" fill="#252525"/>
<path d="M45.2766 326.192C45.2766 326.192 82.3042 322.406 88.1183 320.404C93.9328 318.401 98.9273 318.186 98.9273 318.186C98.9273 318.186 102.992 315.996 103.43 319.043C103.869 322.09 109.107 344.028 110.889 348.594C112.671 353.16 112.952 357.44 110.552 359.559C108.153 361.677 103.092 364.26 96.8644 366.719C90.6371 369.177 82.6658 372.324 77.8471 373.934C73.0291 375.543 68.6966 375.204 63.9573 376.197C59.218 377.189 59.959 376.019 52.4797 378.093C45.0005 380.167 42.9353 382.447 40.0122 381.259C37.089 380.071 35.7648 381.179 34.3898 375.281C33.0147 369.383 31.9204 367.766 31.0435 361.672C30.1667 355.578 29.3812 350.618 29.1665 343.97C28.9518 337.321 27.4445 336.16 29.169 332.844C30.8936 329.528 28.5603 329.279 33.044 327.509C37.5279 325.739 40.2742 325.533 42.2734 325.622C44.2725 325.711 45.2752 326.193 45.2752 326.193L45.2766 326.192Z" fill="#252525"/>
<path d="M49.6011 414.517L123.492 388.57C123.492 388.57 132.154 412.36 136.365 419.183C140.577 426.005 143.584 427.451 141.768 429.631C139.953 431.81 113.854 448.255 103.074 453.973C92.2953 459.69 83.6591 462.514 78.679 464.48L69.9641 467.919L49.6011 414.517Z" fill="#252525"/>
<path d="M88.1247 495.52L156.533 454.458C156.533 454.458 157.942 453.609 159.869 455.191C161.796 456.772 184.235 484.805 184.235 484.805C184.235 484.805 185.998 486.744 184.673 487.853C183.349 488.961 121.114 542.811 121.114 542.811C121.114 542.811 120.786 543.526 117.339 539.031C113.892 534.536 89.7372 499.568 89.7372 499.568L88.1247 495.52Z" fill="#252525"/>
<path d="M143.247 570.527L203.038 508.755L232.46 539.103C232.46 539.103 234.647 541.468 232.657 543.134C230.666 544.801 179.575 609.888 179.575 609.888L143.247 570.527Z" fill="#252525"/>
<path d="M129.075 198.107C129.075 198.107 122.68 206.233 120.541 211.795C118.402 217.356 116.717 227.749 116.419 232.878C116.121 238.007 115.493 243.856 116.112 248.328C116.731 252.8 116.433 257.929 116.861 259.234C117.29 260.538 117.817 263.867 120.074 262.976C122.33 262.085 123.32 259.925 124.311 257.766C125.301 255.606 128.081 245.959 129.56 241.838C131.038 237.717 130.94 235.692 135.422 229.501C139.903 223.309 141.395 220.951 142.305 219.413C143.216 217.874 144.207 215.714 144.207 215.714C144.207 215.714 144.492 208.821 142.21 206.185C139.927 203.549 137.804 199.671 136.451 198.142C135.099 196.612 135.931 195.694 133.503 196.064C131.075 196.433 129.075 198.107 129.075 198.107L129.075 198.107Z" fill="#252525"/>
<path d="M155.444 252.125L123.573 313.096L135.792 354.596C135.792 354.596 136.141 356.523 137.978 355.208C139.815 353.893 173.351 291.084 173.351 291.084C173.351 291.084 174.924 288.103 171.253 279.52C167.582 270.937 158.965 251.619 158.965 251.619L155.444 252.125Z" fill="#252525"/>
<path d="M149.289 393.994L185.906 326.204C185.906 326.204 188.973 321.752 190.93 325.987C192.888 330.223 203.47 357.273 203.47 357.273C203.47 357.273 204.175 362.003 202.434 364.459C200.692 366.915 169.078 419.765 169.078 419.765C169.078 419.765 165.51 424.415 163.73 421.582C161.95 418.75 149.29 393.993 149.29 393.993L149.289 393.994Z" fill="#252525"/>
<path d="M184.375 448.179L213.899 393.188C213.899 393.188 218.459 386.376 223.167 399.845C227.875 413.314 231.455 421.629 231.455 421.629C231.455 421.629 232.313 424.238 229.58 428.854C226.848 433.471 206.345 472.813 206.345 472.813C206.345 472.813 202.88 480.372 199.404 474.965C195.928 469.558 186.181 454.542 186.181 454.542L184.375 448.179Z" fill="#252525"/>
<path d="M247.052 463.135L259.501 492.412L243.706 521.937L221.589 500.309C221.589 500.309 218.713 496.728 221.128 494.595C223.543 492.462 243.785 463.54 243.785 463.54L247.052 463.135Z" fill="#252525"/>
<path d="M159.194 180.776C159.194 180.776 180.396 185.937 193.53 197.525C206.664 209.111 209.284 212.785 209.284 212.785C209.284 212.785 210.554 214.931 208.302 215.821C206.05 216.711 201.421 212.948 197.991 212.831C194.56 212.715 180.378 206.546 175.275 206.502C170.171 206.458 163.396 206.486 163.396 206.486L162.059 206.72L154.452 184.416C154.452 184.416 155.025 182.718 156.527 182.125C158.028 181.532 159.194 180.777 159.194 180.777L159.194 180.776Z" fill="#252525"/>
<path d="M181.956 239.684L218.854 244.516C218.854 244.516 220.854 243.726 224.697 243.384C228.54 243.043 226.257 239.533 231.895 244.658C237.533 249.783 234.408 245.43 239.973 252.054C245.539 258.678 249.4 260.975 251.537 267.483C253.674 273.991 252.693 277.025 255.542 277.958C258.391 278.891 259.983 279.439 259.667 281.916C259.35 284.394 260.442 285.139 258.277 286.288C256.112 287.438 193.855 278.507 193.855 278.507C193.855 278.507 193.039 281.182 190.133 272.332C187.226 263.481 180.42 247.054 180.42 247.054C180.42 247.054 176.954 241.659 178.204 241.165L181.955 239.684L181.956 239.684Z" fill="#252525"/>
<path d="M213.984 309.883L272.561 317.039C272.561 317.039 276.471 314.318 277.832 317.604C279.194 320.89 291.894 354.405 291.894 354.405C291.894 354.405 292.281 361.605 285.161 359.712C278.04 357.819 223.013 344.262 223.013 344.262C223.013 344.262 218.742 343.302 217.71 339.297C216.678 335.293 207.337 315.452 207.337 315.452C207.337 315.452 205.567 313.504 206.976 311.771C208.385 310.038 212.136 308.556 212.136 308.556L213.984 309.883Z" fill="#252525"/>
<path d="M238.372 380.08C238.372 380.08 288.73 383.716 295.186 386.167C301.641 388.617 303.386 387.046 305.602 392.935C307.819 398.825 310.475 407.776 311.533 415.3C312.591 422.823 315.111 424.475 310.524 425.993C305.936 427.511 302.014 428.473 295.65 427.163C289.286 425.853 251.684 417.178 251.684 417.178C251.684 417.178 246.399 414.853 246.722 413.255C247.045 411.657 237.062 383.834 237.062 383.834L238.372 380.08Z" fill="#252525"/>
<path d="M284.691 454.734L312.326 463.861C312.326 463.861 318.93 461.548 320.352 472.775C321.774 484.002 323.618 495.651 323.618 495.651C323.618 495.651 325.173 502.111 314.759 498.856C304.344 495.601 280.824 487.795 280.824 487.795C280.824 487.795 275.125 487.688 273.998 482.533C272.872 477.379 266.036 459.153 266.036 459.153C266.036 459.153 261.348 448.331 270.754 451.1C280.159 453.87 284.691 454.732 284.691 454.732L284.691 454.734Z" fill="#252525"/>
<path d="M235.525 195.975L273.192 152.609C273.192 152.609 275.237 146.809 279.343 149.005C283.449 151.2 304.095 177.99 304.095 177.99C304.095 177.99 312.497 185.536 306.188 190.378C299.879 195.219 272.289 223.738 272.289 223.738C272.289 223.738 268.037 224.537 266.065 228.84C264.093 233.143 260.24 242.888 255.176 235.197C250.111 227.507 236.455 209.116 234.287 209.385C232.118 209.654 228.315 203.228 229.393 202.214C230.471 201.201 235.525 195.974 235.525 195.974L235.525 195.975Z" fill="#252525"/>
<path d="M280.798 258.216C280.798 258.216 287.559 247.924 296.353 242.105C305.147 236.287 304.386 234.828 309.544 233.378C314.702 231.927 314.295 233.261 316.441 230.361C318.587 227.461 315.333 226.987 319.231 224.275C323.129 221.563 325.203 220.157 328.445 218.877C331.687 217.597 335.093 215.959 337.46 220.594C339.828 225.229 347.673 237.962 350.388 244.513C353.103 251.063 355.366 252.808 355.556 255.958C355.745 259.108 352.28 263.995 349.038 265.275C345.796 266.556 334.181 274.075 330.446 276.429C326.712 278.784 319.001 284.468 315.844 286.007C312.688 287.547 310.772 287.717 307.123 290.331C303.474 292.945 301.801 292.14 301.236 294.708C300.671 297.277 300.526 300.266 297.199 301.286C293.872 302.307 292.205 302.379 291.025 300.5C289.844 298.621 287.811 294.147 285.181 287.856C282.552 281.565 282.624 280.07 281.011 276.017C279.398 271.963 276.964 269.7 276.209 269.118C275.455 268.537 274.767 265.583 276.001 263.337C277.235 261.091 280.799 258.217 280.799 258.217L280.798 258.216Z" fill="#252525"/>
<path d="M311.14 323.431C311.14 323.431 321.4 315.287 326.045 313.162C330.689 311.036 331.253 308.474 335.813 306.089C340.373 303.705 341.447 302.696 345.102 301.838C348.758 300.98 347.598 301.731 350.664 299.936C353.73 298.141 356.941 293.364 359.758 291.667C362.575 289.97 363.145 288.283 367.396 289.238C371.647 290.192 372.662 292.424 373.422 293.879C374.181 295.334 386.214 325.097 386.214 325.097C386.214 325.097 387.273 333.453 383.958 335.346C380.643 337.24 337.007 355.923 337.007 355.923C337.007 355.923 332.337 354.549 330.11 357.183C327.882 359.817 325.89 360.603 324.148 361.291C322.405 361.978 321.822 361.916 321.822 361.916C321.822 361.916 320.663 362.666 319.411 362.282C318.16 361.899 316.352 364.952 314.31 358.739L305.63 332.333C305.63 332.333 303.115 329.815 306.26 327.404C309.405 324.993 311.141 323.431 311.141 323.431L311.14 323.431Z" fill="#252525"/>
<path d="M328.768 389.695C328.768 389.695 362.185 375.049 367.332 373.602C372.479 372.156 375.963 370.781 377.456 370.192C378.949 369.603 379.21 371.254 382.033 370.433C384.855 369.611 385.595 368.442 386.584 367.175C387.573 365.908 392.871 362.356 395.372 363.123C397.873 363.89 400.355 362.034 402.063 368.083C403.771 374.132 404.168 383.036 405.81 391.45C407.451 399.864 405.59 407.028 406.271 409.098C406.951 411.168 408.129 413.042 408.129 413.042C408.129 413.042 404.652 415.291 401.751 416.728C398.85 418.165 386.795 419.121 384.968 419.55C383.141 419.978 378.571 420.613 373.339 421.8C368.107 422.988 370.844 421.908 363.955 424.041C357.066 426.175 354.742 426.8 351.009 428.272C347.276 429.745 345.213 432.021 341.462 430.87C337.71 429.72 338.135 431.014 336.211 429.435C334.286 427.856 335.045 429.31 333.102 425.108C331.158 420.906 328.697 414.277 328.6 412.27C328.502 410.262 324.006 398.298 324.327 396.71C324.649 395.122 323.385 392.989 324.957 391.785C326.529 390.58 328.769 389.696 328.769 389.696L328.768 389.695Z" fill="#252525"/>
<path d="M344.991 464.023C344.991 464.023 385.579 456.21 394.434 457.409C403.289 458.609 403.696 457.273 408.702 457.058C413.708 456.842 416.521 453.382 418.582 461.375C420.643 469.369 423.823 493.656 423.823 493.656L425.869 511.05C425.869 511.05 425.604 520.55 417.754 519.834C409.904 519.118 348.745 509.809 348.745 509.809C348.745 509.809 342.674 512.794 341.966 507.202C341.258 501.61 340.183 491.465 340.255 489.969C340.328 488.472 340.074 476.535 339.976 474.519C339.878 472.502 335.327 466.373 338.073 465.288C340.82 464.203 344.991 464.023 344.991 464.023L344.991 464.023Z" fill="#252525"/>
<path d="M414.592 842.132L474.411 852.619C474.411 852.619 480.309 853.498 478.263 857.503C476.218 861.508 472.662 874.544 470.61 877.679C468.558 880.814 445.67 916.88 433.598 922.794C421.527 928.71 389.931 942.603 377.089 945.331C364.248 948.059 331.164 951.484 317.764 945.705C304.363 939.926 275.842 931.664 271.826 927.135C267.81 922.607 263.037 916.631 263.037 916.631C263.037 916.631 259.779 913.55 262.085 911.188C264.391 908.826 266.285 906.916 271.322 903.479C276.359 900.041 314.706 867.491 314.706 867.491C314.706 867.491 318.41 863.414 324.634 863.582C330.859 863.75 329.787 864.754 333.542 867.639C337.297 870.524 339.066 874.191 347.192 873.32C355.317 872.448 357.981 873.727 366.505 870.662C375.03 867.597 379.752 866.61 385.201 862.72C390.649 858.83 394.366 856.494 396.986 851.68C399.607 846.867 401.149 842.187 403.298 841.05C405.448 839.913 407.185 839.229 410.091 839.54C412.998 839.85 415.917 841.901 415.917 841.901C415.917 841.901 413.017 842.461 414.591 842.132L414.592 842.132Z" fill="#252525"/>
<path d="M382.769 671.739L447.455 654.4C447.455 654.4 452.354 652.173 453.717 656.321C455.08 660.47 463.621 701.036 463.621 701.036C463.621 701.036 464.407 705.999 458.996 706.67C453.586 707.341 394.278 719.628 394.278 719.628C394.278 719.628 389.124 721.077 387.846 717.188C386.568 713.299 378.393 677.274 378.393 677.274C378.393 677.274 376.446 673.063 378.938 672.079C381.43 671.095 382.768 671.738 382.768 671.738L382.769 671.739Z" fill="#252525"/>
<path d="M402.716 741.703C402.716 741.703 454.874 733.689 458.938 732.377C463.003 731.066 467.068 729.755 468.566 730.04C470.065 730.325 472.127 728.051 473.33 733.418C474.533 738.785 475.86 749.653 476.133 753.05C476.408 756.447 475.602 759.977 474.286 761.957C472.97 763.936 467.831 766.255 462.765 767.085C457.699 767.915 426.538 770.568 418.482 771.702C410.424 772.835 401.962 775.297 400.614 772.908C399.266 770.519 396.996 767.034 395.872 761.051C394.747 755.069 392.968 750.514 393.034 748.151C393.1 745.788 392.741 742.133 395.896 741.473C399.051 740.813 402.716 741.703 402.716 741.703L402.716 741.703Z" fill="#252525"/>
<path d="M234.03 848.19L296.511 823.846C296.511 823.846 298.069 820.898 300.234 821.503C302.399 822.109 302.981 822.171 304.413 824.816C305.845 827.461 308.898 835.886 309.407 837.436C309.917 838.986 312.592 841.141 308.372 843.68C304.153 846.219 246.369 888.26 246.369 888.26C246.369 888.26 245.473 890.656 243.263 883.94C241.054 877.225 239.452 874.063 237.753 868.898C236.053 863.732 233.68 857.373 233.746 855.013C233.812 852.652 232.956 849.197 234.029 848.19L234.03 848.19Z" fill="#252525"/>
<path d="M224.442 786.22C224.442 786.22 244.389 778.656 254.333 776.486C264.277 774.316 268.348 774.751 272.653 773.347C276.959 771.942 285.655 769.391 285.655 769.391C285.655 769.391 290.542 768.048 291.979 771.558C293.415 775.067 294.361 779.643 295.974 784.539C297.586 789.434 295.553 795.183 295.553 795.183C295.553 795.183 292.102 800.035 283.739 802.746C275.376 805.458 274.383 805.849 265.275 808.853C256.167 811.858 246.732 815.574 244.25 816.551L231.835 821.44L226.87 823.396C226.87 823.396 222.492 826.284 221.599 817.612C220.706 808.94 219.1 804.915 218.905 800.917C218.71 796.919 217.031 794.378 218.423 791.792C219.816 789.206 224.442 786.22 224.442 786.22L224.442 786.22Z" fill="#252525"/>
<path d="M215.126 706.116C215.126 706.116 236.001 702.852 241.233 700.786C246.464 698.721 244.288 697.238 249.283 697.023C254.277 696.807 257.181 695.368 260.845 695.386C264.509 695.403 266.678 696.01 269.667 694.83C272.656 693.65 274.825 694.257 276.96 701.611C279.095 708.965 278.374 712.762 280.587 719.499C282.801 726.236 284.482 739.916 284.482 739.916L214.044 763.625C214.044 763.625 210.61 760.882 211.805 753.385C212.999 745.888 211.965 741.027 211.265 736.327C210.565 731.627 210.539 728.125 211.517 725.104C212.494 722.084 212.711 717.607 212.613 715.597C212.515 713.586 211.304 707.331 211.304 707.331L215.126 706.116Z" fill="#252525"/>
<path d="M303.287 711.88L321.915 721.059C321.915 721.059 323.429 721.347 324.902 727.556C326.375 733.764 327.629 744.487 327.629 744.487C327.629 744.487 330.59 747.451 327.74 748.281C324.89 749.11 317.585 749.337 315.727 748.004C313.87 746.67 308.489 745.842 307.643 744.995C306.797 744.148 304.43 742.13 303.835 741.184C303.241 740.238 299.335 734.399 298.8 730.182C298.266 725.965 296.548 720.739 297.785 717.594C299.022 714.449 301.191 712.412 301.191 712.412L303.287 711.88Z" fill="#252525"/>
<path d="M317.575 770.999L332.126 779.1C332.126 779.1 333.801 779.027 335.856 785.287C337.912 791.546 339.533 795.62 337.278 796.511C335.023 797.401 328.91 797.753 326.221 796.458C323.531 795.164 318.506 795.38 316.397 793.267C314.287 791.154 311.677 789.239 311.223 784.409C310.769 779.58 311.238 774.975 312.485 773.599C313.731 772.223 317.576 770.999 317.576 770.999L317.575 770.999Z" fill="#252525"/>
<path d="M328.231 822.624C328.231 822.624 334.127 824.138 337.415 825.499C340.704 826.86 342.047 826.625 344.19 832.278C346.333 837.931 348.979 843.386 348.833 846.397C348.686 849.409 349.533 850.257 347.27 851.15C345.006 852.043 343.484 850.871 341.963 849.699C340.441 848.527 338.164 847.653 336.471 845.958C334.777 844.263 330.807 841.694 329.444 839.277C328.082 836.861 325.455 834.057 324.939 832.489C324.423 830.92 323.736 828.828 324.226 826.862C324.716 824.897 326.55 822.696 326.55 822.696L328.231 822.624Z" fill="#252525"/>
<path d="M344.386 717.398C344.386 717.398 347.285 712.42 349.794 711.429C352.302 710.439 355.729 708.791 356.548 706.108C357.367 703.425 361.111 699.293 361.864 698.996C362.616 698.699 363.455 698.662 364.569 702.056C365.684 705.449 366.891 709.986 367.504 713.578C368.118 717.169 369.239 721.445 369.925 723.533C370.611 725.621 374.447 722.632 370.122 727.584C365.797 732.536 359.141 739.882 359.141 739.882L354.539 741.404C354.539 741.404 351.602 741.09 350.665 739.1C349.728 737.111 348.62 734.6 347.841 731.369C347.063 728.137 346.701 724.446 346.358 723.402L344.386 717.398L344.386 717.398Z" fill="#252525"/>
<path d="M358.246 774.919C358.246 774.919 366.698 765.408 370.689 762.95C374.681 760.491 375.602 760.715 376.633 764.716C377.664 768.717 378.86 772.358 378.86 772.358C378.86 772.358 380.635 775.184 378.978 777.014C377.32 778.844 374.511 783.187 371.934 784.793C369.356 786.399 364.962 791.073 362.701 790.204C360.439 789.334 358.987 784.912 358.889 782.893C358.791 780.875 358.246 774.919 358.246 774.919L358.246 774.919Z" fill="#252525"/>
<path d="M371.418 821.397L379.138 808.607C379.138 808.607 382.722 804.831 384.084 807.246C385.445 809.661 384.24 817.222 384.24 817.222C384.24 817.222 386.366 832.325 384.877 835.57C383.389 838.814 381.318 842.879 379.228 844.294C377.138 845.71 375.723 847.449 374.005 842.222C372.287 836.996 370.279 826.569 370.279 826.569L371.418 821.397Z" fill="#252525"/>
</svg>
