<svg width="22" height="20" viewBox="0 0 22 20" fill="none" xmlns="http://www.w3.org/2000/svg">
<path d="M11.866 1.8869L14.3034 6.36466C14.3588 6.47832 14.446 6.57676 14.5563 6.65019C14.6665 6.72361 14.796 6.76946 14.9318 6.78315L20.3123 7.50852C20.4681 7.52674 20.615 7.58492 20.7358 7.67626C20.8566 7.76761 20.9464 7.88835 20.9946 8.02438C21.0428 8.16041 21.0475 8.30612 21.0081 8.44449C20.9688 8.58286 20.8869 8.70818 20.7722 8.80581L16.894 12.3071C16.795 12.3913 16.7207 12.4966 16.6779 12.6135C16.635 12.7305 16.625 12.8553 16.6487 12.9767L17.5838 17.9008C17.6108 18.0423 17.5937 18.1879 17.5344 18.321C17.475 18.454 17.3758 18.5693 17.248 18.6536C17.1203 18.7379 16.969 18.7879 16.8116 18.7978C16.6542 18.8078 16.4968 18.7773 16.3574 18.7099L11.5135 16.3803C11.3894 16.3249 11.2531 16.2961 11.1149 16.2961C10.9767 16.2961 10.8404 16.3249 10.7164 16.3803L5.87239 18.7099C5.73303 18.7773 5.57568 18.8078 5.41823 18.7978C5.26079 18.7879 5.10958 18.7379 4.9818 18.6536C4.85402 18.5693 4.75481 18.454 4.69546 18.321C4.63611 18.1879 4.619 18.0423 4.64607 17.9008L5.58114 12.9209C5.60484 12.7995 5.59482 12.6747 5.55198 12.5577C5.50914 12.4408 5.43486 12.3355 5.33588 12.2513L1.41165 8.80581C1.29555 8.70551 1.2139 8.57672 1.1766 8.43506C1.13929 8.29339 1.14793 8.14491 1.20147 8.00762C1.255 7.87033 1.35113 7.75011 1.47822 7.66153C1.60531 7.57294 1.7579 7.51979 1.9175 7.50852L7.29799 6.78315C7.4338 6.76946 7.5633 6.72361 7.67357 6.65019C7.78385 6.57676 7.87105 6.47832 7.92648 6.36466L10.3638 1.8869C10.4302 1.75649 10.5362 1.64607 10.6693 1.56869C10.8023 1.49131 10.957 1.4502 11.1149 1.4502C11.2729 1.4502 11.4275 1.49131 11.5606 1.56869C11.6937 1.64607 11.7997 1.75649 11.866 1.8869Z" stroke="#CBEB09" stroke-width="1.71429" stroke-linecap="round" stroke-linejoin="round"/>
</svg>
